<mxfile host="app.diagrams.net" agent="Mozilla/5.0 (Windows NT 10.0; Win64; x64) AppleWebKit/537.36 (KHTML, like Gecko) Chrome/127.0.0.0 Safari/537.36" version="24.7.4">
  <diagram name="第 1 页" id="SVfDwHS8JEJLDXrOLqse">
    <mxGraphModel dx="1308" dy="915" grid="1" gridSize="10" guides="1" tooltips="1" connect="1" arrows="1" fold="1" page="1" pageScale="1" pageWidth="827" pageHeight="1169" math="0" shadow="0">
      <root>
        <mxCell id="0" />
        <mxCell id="1" parent="0" />
        <mxCell id="gOxFweUKBGqqjZpO7kUV-6" value="" style="edgeStyle=orthogonalEdgeStyle;rounded=0;orthogonalLoop=1;jettySize=auto;html=1;" edge="1" parent="1" source="gOxFweUKBGqqjZpO7kUV-2" target="gOxFweUKBGqqjZpO7kUV-5">
          <mxGeometry relative="1" as="geometry" />
        </mxCell>
        <mxCell id="gOxFweUKBGqqjZpO7kUV-126" value="1.1.1" style="edgeLabel;html=1;align=center;verticalAlign=middle;resizable=0;points=[];" vertex="1" connectable="0" parent="gOxFweUKBGqqjZpO7kUV-6">
          <mxGeometry x="0.4394" y="-1" relative="1" as="geometry">
            <mxPoint as="offset" />
          </mxGeometry>
        </mxCell>
        <mxCell id="gOxFweUKBGqqjZpO7kUV-20" value="" style="edgeStyle=orthogonalEdgeStyle;rounded=0;orthogonalLoop=1;jettySize=auto;html=1;exitX=0.5;exitY=1;exitDx=0;exitDy=0;exitPerimeter=0;" edge="1" parent="1" source="gOxFweUKBGqqjZpO7kUV-2" target="gOxFweUKBGqqjZpO7kUV-19">
          <mxGeometry relative="1" as="geometry">
            <Array as="points">
              <mxPoint x="260" y="280" />
              <mxPoint x="440" y="280" />
            </Array>
          </mxGeometry>
        </mxCell>
        <mxCell id="gOxFweUKBGqqjZpO7kUV-134" value="1.2.1" style="edgeLabel;html=1;align=center;verticalAlign=middle;resizable=0;points=[];" vertex="1" connectable="0" parent="gOxFweUKBGqqjZpO7kUV-20">
          <mxGeometry x="0.8143" relative="1" as="geometry">
            <mxPoint as="offset" />
          </mxGeometry>
        </mxCell>
        <mxCell id="gOxFweUKBGqqjZpO7kUV-22" value="" style="edgeStyle=orthogonalEdgeStyle;rounded=0;orthogonalLoop=1;jettySize=auto;html=1;exitX=0.5;exitY=1;exitDx=0;exitDy=0;exitPerimeter=0;" edge="1" parent="1" source="gOxFweUKBGqqjZpO7kUV-2" target="gOxFweUKBGqqjZpO7kUV-21">
          <mxGeometry relative="1" as="geometry" />
        </mxCell>
        <mxCell id="gOxFweUKBGqqjZpO7kUV-128" value="1.3.1" style="edgeLabel;html=1;align=center;verticalAlign=middle;resizable=0;points=[];" vertex="1" connectable="0" parent="gOxFweUKBGqqjZpO7kUV-22">
          <mxGeometry x="0.8761" y="2" relative="1" as="geometry">
            <mxPoint as="offset" />
          </mxGeometry>
        </mxCell>
        <mxCell id="gOxFweUKBGqqjZpO7kUV-2" value="开始" style="strokeWidth=2;html=1;shape=mxgraph.flowchart.start_2;whiteSpace=wrap;" vertex="1" parent="1">
          <mxGeometry x="210" y="130" width="100" height="100" as="geometry" />
        </mxCell>
        <mxCell id="gOxFweUKBGqqjZpO7kUV-8" value="" style="edgeStyle=orthogonalEdgeStyle;rounded=0;orthogonalLoop=1;jettySize=auto;html=1;" edge="1" parent="1" source="gOxFweUKBGqqjZpO7kUV-5" target="gOxFweUKBGqqjZpO7kUV-7">
          <mxGeometry relative="1" as="geometry" />
        </mxCell>
        <mxCell id="gOxFweUKBGqqjZpO7kUV-129" value="1.1.2" style="edgeLabel;html=1;align=center;verticalAlign=middle;resizable=0;points=[];" vertex="1" connectable="0" parent="gOxFweUKBGqqjZpO7kUV-8">
          <mxGeometry x="0.1421" y="1" relative="1" as="geometry">
            <mxPoint as="offset" />
          </mxGeometry>
        </mxCell>
        <mxCell id="gOxFweUKBGqqjZpO7kUV-5" value="多源数据采集" style="whiteSpace=wrap;html=1;strokeWidth=2;" vertex="1" parent="1">
          <mxGeometry x="200" y="330" width="120" height="60" as="geometry" />
        </mxCell>
        <mxCell id="gOxFweUKBGqqjZpO7kUV-10" value="" style="edgeStyle=orthogonalEdgeStyle;rounded=0;orthogonalLoop=1;jettySize=auto;html=1;entryX=0.5;entryY=0;entryDx=0;entryDy=0;entryPerimeter=0;" edge="1" parent="1" source="gOxFweUKBGqqjZpO7kUV-7" target="gOxFweUKBGqqjZpO7kUV-144">
          <mxGeometry relative="1" as="geometry">
            <mxPoint x="260" y="610" as="targetPoint" />
          </mxGeometry>
        </mxCell>
        <mxCell id="gOxFweUKBGqqjZpO7kUV-130" value="1.1.3" style="edgeLabel;html=1;align=center;verticalAlign=middle;resizable=0;points=[];" vertex="1" connectable="0" parent="gOxFweUKBGqqjZpO7kUV-10">
          <mxGeometry x="0.0279" y="1" relative="1" as="geometry">
            <mxPoint as="offset" />
          </mxGeometry>
        </mxCell>
        <mxCell id="gOxFweUKBGqqjZpO7kUV-7" value="解析汇聚" style="whiteSpace=wrap;html=1;strokeWidth=2;" vertex="1" parent="1">
          <mxGeometry x="200" y="470" width="120" height="60" as="geometry" />
        </mxCell>
        <mxCell id="gOxFweUKBGqqjZpO7kUV-14" value="" style="edgeStyle=orthogonalEdgeStyle;rounded=0;orthogonalLoop=1;jettySize=auto;html=1;exitX=0.5;exitY=1;exitDx=0;exitDy=0;exitPerimeter=0;" edge="1" parent="1" source="gOxFweUKBGqqjZpO7kUV-32" target="gOxFweUKBGqqjZpO7kUV-13">
          <mxGeometry relative="1" as="geometry">
            <mxPoint x="260" y="700" as="sourcePoint" />
          </mxGeometry>
        </mxCell>
        <mxCell id="gOxFweUKBGqqjZpO7kUV-149" value="1.1.7" style="edgeLabel;html=1;align=center;verticalAlign=middle;resizable=0;points=[];" vertex="1" connectable="0" parent="gOxFweUKBGqqjZpO7kUV-14">
          <mxGeometry x="-0.3062" relative="1" as="geometry">
            <mxPoint as="offset" />
          </mxGeometry>
        </mxCell>
        <mxCell id="gOxFweUKBGqqjZpO7kUV-16" value="" style="edgeStyle=orthogonalEdgeStyle;rounded=0;orthogonalLoop=1;jettySize=auto;html=1;" edge="1" parent="1" source="gOxFweUKBGqqjZpO7kUV-13" target="gOxFweUKBGqqjZpO7kUV-15">
          <mxGeometry relative="1" as="geometry" />
        </mxCell>
        <mxCell id="gOxFweUKBGqqjZpO7kUV-139" value="1.1.8" style="edgeLabel;html=1;align=center;verticalAlign=middle;resizable=0;points=[];" vertex="1" connectable="0" parent="gOxFweUKBGqqjZpO7kUV-16">
          <mxGeometry x="0.1732" y="1" relative="1" as="geometry">
            <mxPoint as="offset" />
          </mxGeometry>
        </mxCell>
        <mxCell id="gOxFweUKBGqqjZpO7kUV-18" value="" style="edgeStyle=orthogonalEdgeStyle;rounded=0;orthogonalLoop=1;jettySize=auto;html=1;" edge="1" parent="1" source="gOxFweUKBGqqjZpO7kUV-13" target="gOxFweUKBGqqjZpO7kUV-17">
          <mxGeometry relative="1" as="geometry" />
        </mxCell>
        <mxCell id="gOxFweUKBGqqjZpO7kUV-140" value="1.1.10" style="edgeLabel;html=1;align=center;verticalAlign=middle;resizable=0;points=[];" vertex="1" connectable="0" parent="gOxFweUKBGqqjZpO7kUV-18">
          <mxGeometry x="-0.0582" y="2" relative="1" as="geometry">
            <mxPoint as="offset" />
          </mxGeometry>
        </mxCell>
        <mxCell id="gOxFweUKBGqqjZpO7kUV-13" value="处理引擎" style="whiteSpace=wrap;html=1;strokeWidth=2;" vertex="1" parent="1">
          <mxGeometry x="200" y="829" width="120" height="60" as="geometry" />
        </mxCell>
        <mxCell id="gOxFweUKBGqqjZpO7kUV-30" style="edgeStyle=orthogonalEdgeStyle;rounded=0;orthogonalLoop=1;jettySize=auto;html=1;exitX=0.5;exitY=1;exitDx=0;exitDy=0;" edge="1" parent="1" source="gOxFweUKBGqqjZpO7kUV-15" target="gOxFweUKBGqqjZpO7kUV-29">
          <mxGeometry relative="1" as="geometry" />
        </mxCell>
        <mxCell id="gOxFweUKBGqqjZpO7kUV-142" value="1.1.9" style="edgeLabel;html=1;align=center;verticalAlign=middle;resizable=0;points=[];" vertex="1" connectable="0" parent="gOxFweUKBGqqjZpO7kUV-30">
          <mxGeometry x="-0.2439" y="1" relative="1" as="geometry">
            <mxPoint as="offset" />
          </mxGeometry>
        </mxCell>
        <mxCell id="gOxFweUKBGqqjZpO7kUV-15" value="&lt;div&gt;自动处理&lt;/div&gt;(下发命令)" style="whiteSpace=wrap;html=1;strokeWidth=2;" vertex="1" parent="1">
          <mxGeometry x="120" y="969" width="120" height="60" as="geometry" />
        </mxCell>
        <mxCell id="gOxFweUKBGqqjZpO7kUV-31" style="edgeStyle=orthogonalEdgeStyle;rounded=0;orthogonalLoop=1;jettySize=auto;html=1;exitX=0.5;exitY=1;exitDx=0;exitDy=0;" edge="1" parent="1" source="gOxFweUKBGqqjZpO7kUV-17">
          <mxGeometry relative="1" as="geometry">
            <mxPoint x="260" y="1109" as="targetPoint" />
          </mxGeometry>
        </mxCell>
        <mxCell id="gOxFweUKBGqqjZpO7kUV-143" value="1.1.11" style="edgeLabel;html=1;align=center;verticalAlign=middle;resizable=0;points=[];" vertex="1" connectable="0" parent="gOxFweUKBGqqjZpO7kUV-31">
          <mxGeometry x="-0.1171" relative="1" as="geometry">
            <mxPoint as="offset" />
          </mxGeometry>
        </mxCell>
        <mxCell id="gOxFweUKBGqqjZpO7kUV-17" value="人工指引" style="whiteSpace=wrap;html=1;strokeWidth=2;" vertex="1" parent="1">
          <mxGeometry x="280" y="969" width="120" height="60" as="geometry" />
        </mxCell>
        <mxCell id="gOxFweUKBGqqjZpO7kUV-25" style="edgeStyle=orthogonalEdgeStyle;rounded=0;orthogonalLoop=1;jettySize=auto;html=1;exitX=0.5;exitY=1;exitDx=0;exitDy=0;entryX=0.5;entryY=0;entryDx=0;entryDy=0;" edge="1" parent="1" source="gOxFweUKBGqqjZpO7kUV-19" target="gOxFweUKBGqqjZpO7kUV-24">
          <mxGeometry relative="1" as="geometry" />
        </mxCell>
        <mxCell id="gOxFweUKBGqqjZpO7kUV-135" value="1.2.2" style="edgeLabel;html=1;align=center;verticalAlign=middle;resizable=0;points=[];" vertex="1" connectable="0" parent="gOxFweUKBGqqjZpO7kUV-25">
          <mxGeometry x="0.5688" y="-1" relative="1" as="geometry">
            <mxPoint as="offset" />
          </mxGeometry>
        </mxCell>
        <mxCell id="gOxFweUKBGqqjZpO7kUV-19" value="定义故障场景" style="whiteSpace=wrap;html=1;strokeWidth=2;" vertex="1" parent="1">
          <mxGeometry x="380" y="330" width="120" height="60" as="geometry" />
        </mxCell>
        <mxCell id="gOxFweUKBGqqjZpO7kUV-26" style="edgeStyle=orthogonalEdgeStyle;rounded=0;orthogonalLoop=1;jettySize=auto;html=1;exitX=0.5;exitY=1;exitDx=0;exitDy=0;entryX=0.5;entryY=0;entryDx=0;entryDy=0;" edge="1" parent="1" source="gOxFweUKBGqqjZpO7kUV-21" target="gOxFweUKBGqqjZpO7kUV-23">
          <mxGeometry relative="1" as="geometry" />
        </mxCell>
        <mxCell id="gOxFweUKBGqqjZpO7kUV-136" value="1.3.2" style="edgeLabel;html=1;align=center;verticalAlign=middle;resizable=0;points=[];" vertex="1" connectable="0" parent="gOxFweUKBGqqjZpO7kUV-26">
          <mxGeometry x="-0.0203" relative="1" as="geometry">
            <mxPoint as="offset" />
          </mxGeometry>
        </mxCell>
        <mxCell id="gOxFweUKBGqqjZpO7kUV-21" value="基础命令" style="whiteSpace=wrap;html=1;strokeWidth=2;" vertex="1" parent="1">
          <mxGeometry x="580" y="330" width="120" height="60" as="geometry" />
        </mxCell>
        <mxCell id="gOxFweUKBGqqjZpO7kUV-27" style="edgeStyle=orthogonalEdgeStyle;rounded=0;orthogonalLoop=1;jettySize=auto;html=1;exitX=0.5;exitY=1;exitDx=0;exitDy=0;entryX=1;entryY=0.5;entryDx=0;entryDy=0;" edge="1" parent="1" source="gOxFweUKBGqqjZpO7kUV-23" target="gOxFweUKBGqqjZpO7kUV-24">
          <mxGeometry relative="1" as="geometry" />
        </mxCell>
        <mxCell id="gOxFweUKBGqqjZpO7kUV-137" value="1.3.3" style="edgeLabel;html=1;align=center;verticalAlign=middle;resizable=0;points=[];" vertex="1" connectable="0" parent="gOxFweUKBGqqjZpO7kUV-27">
          <mxGeometry x="0.044" relative="1" as="geometry">
            <mxPoint as="offset" />
          </mxGeometry>
        </mxCell>
        <mxCell id="gOxFweUKBGqqjZpO7kUV-23" value="命令库" style="shape=internalStorage;whiteSpace=wrap;html=1;dx=15;dy=15;rounded=1;arcSize=8;strokeWidth=2;" vertex="1" parent="1">
          <mxGeometry x="605" y="440" width="70" height="70" as="geometry" />
        </mxCell>
        <mxCell id="gOxFweUKBGqqjZpO7kUV-28" style="edgeStyle=orthogonalEdgeStyle;rounded=0;orthogonalLoop=1;jettySize=auto;html=1;exitX=0;exitY=0.5;exitDx=0;exitDy=0;entryX=1;entryY=0.5;entryDx=0;entryDy=0;entryPerimeter=0;" edge="1" parent="1" source="gOxFweUKBGqqjZpO7kUV-24" target="gOxFweUKBGqqjZpO7kUV-144">
          <mxGeometry relative="1" as="geometry">
            <mxPoint x="320" y="640" as="targetPoint" />
          </mxGeometry>
        </mxCell>
        <mxCell id="gOxFweUKBGqqjZpO7kUV-138" value="1.1.4" style="edgeLabel;html=1;align=center;verticalAlign=middle;resizable=0;points=[];" vertex="1" connectable="0" parent="gOxFweUKBGqqjZpO7kUV-28">
          <mxGeometry x="-0.6095" relative="1" as="geometry">
            <mxPoint x="-13" as="offset" />
          </mxGeometry>
        </mxCell>
        <mxCell id="gOxFweUKBGqqjZpO7kUV-24" value="故障树" style="shape=internalStorage;whiteSpace=wrap;html=1;dx=15;dy=15;rounded=1;arcSize=8;strokeWidth=2;" vertex="1" parent="1">
          <mxGeometry x="405" y="605" width="70" height="70" as="geometry" />
        </mxCell>
        <mxCell id="gOxFweUKBGqqjZpO7kUV-29" value="结束" style="strokeWidth=2;html=1;shape=mxgraph.flowchart.terminator;whiteSpace=wrap;" vertex="1" parent="1">
          <mxGeometry x="210" y="1109" width="100" height="60" as="geometry" />
        </mxCell>
        <mxCell id="gOxFweUKBGqqjZpO7kUV-38" value="" style="edgeStyle=orthogonalEdgeStyle;rounded=0;orthogonalLoop=1;jettySize=auto;html=1;" edge="1" parent="1" source="gOxFweUKBGqqjZpO7kUV-34" target="gOxFweUKBGqqjZpO7kUV-37">
          <mxGeometry relative="1" as="geometry" />
        </mxCell>
        <mxCell id="gOxFweUKBGqqjZpO7kUV-109" value="1" style="edgeLabel;html=1;align=center;verticalAlign=middle;resizable=0;points=[];" vertex="1" connectable="0" parent="gOxFweUKBGqqjZpO7kUV-38">
          <mxGeometry x="-0.2167" relative="1" as="geometry">
            <mxPoint as="offset" />
          </mxGeometry>
        </mxCell>
        <mxCell id="gOxFweUKBGqqjZpO7kUV-118" value="1.1" style="edgeLabel;html=1;align=center;verticalAlign=middle;resizable=0;points=[];" vertex="1" connectable="0" parent="gOxFweUKBGqqjZpO7kUV-38">
          <mxGeometry x="-0.178" y="1" relative="1" as="geometry">
            <mxPoint as="offset" />
          </mxGeometry>
        </mxCell>
        <mxCell id="gOxFweUKBGqqjZpO7kUV-34" value="开始" style="ellipse;whiteSpace=wrap;html=1;aspect=fixed;" vertex="1" parent="1">
          <mxGeometry x="-110" y="1230" width="80" height="80" as="geometry" />
        </mxCell>
        <mxCell id="gOxFweUKBGqqjZpO7kUV-45" value="" style="edgeStyle=orthogonalEdgeStyle;rounded=0;orthogonalLoop=1;jettySize=auto;html=1;" edge="1" parent="1" source="gOxFweUKBGqqjZpO7kUV-37" target="gOxFweUKBGqqjZpO7kUV-44">
          <mxGeometry relative="1" as="geometry" />
        </mxCell>
        <mxCell id="gOxFweUKBGqqjZpO7kUV-110" value="1.2" style="edgeLabel;html=1;align=center;verticalAlign=middle;resizable=0;points=[];" vertex="1" connectable="0" parent="gOxFweUKBGqqjZpO7kUV-45">
          <mxGeometry x="-0.04" y="1" relative="1" as="geometry">
            <mxPoint as="offset" />
          </mxGeometry>
        </mxCell>
        <mxCell id="gOxFweUKBGqqjZpO7kUV-37" value="配置巡检作业" style="whiteSpace=wrap;html=1;" vertex="1" parent="1">
          <mxGeometry x="10" y="1240" width="120" height="60" as="geometry" />
        </mxCell>
        <mxCell id="gOxFweUKBGqqjZpO7kUV-43" value="" style="edgeStyle=orthogonalEdgeStyle;rounded=0;orthogonalLoop=1;jettySize=auto;html=1;entryX=0.5;entryY=0;entryDx=0;entryDy=0;exitX=0.5;exitY=1;exitDx=0;exitDy=0;" edge="1" parent="1" source="gOxFweUKBGqqjZpO7kUV-41" target="gOxFweUKBGqqjZpO7kUV-51">
          <mxGeometry relative="1" as="geometry">
            <mxPoint x="70" y="1658" as="targetPoint" />
          </mxGeometry>
        </mxCell>
        <mxCell id="gOxFweUKBGqqjZpO7kUV-112" value="1.4" style="edgeLabel;html=1;align=center;verticalAlign=middle;resizable=0;points=[];" vertex="1" connectable="0" parent="gOxFweUKBGqqjZpO7kUV-43">
          <mxGeometry x="-0.2338" y="1" relative="1" as="geometry">
            <mxPoint as="offset" />
          </mxGeometry>
        </mxCell>
        <mxCell id="gOxFweUKBGqqjZpO7kUV-41" value="巡检作业库" style="shape=internalStorage;whiteSpace=wrap;html=1;dx=15;dy=15;rounded=1;arcSize=8;strokeWidth=2;" vertex="1" parent="1">
          <mxGeometry x="380" y="1232.5" width="95" height="75" as="geometry" />
        </mxCell>
        <mxCell id="gOxFweUKBGqqjZpO7kUV-82" style="edgeStyle=orthogonalEdgeStyle;rounded=0;orthogonalLoop=1;jettySize=auto;html=1;exitX=1;exitY=0.5;exitDx=0;exitDy=0;entryX=0;entryY=0.5;entryDx=0;entryDy=0;" edge="1" parent="1" source="gOxFweUKBGqqjZpO7kUV-44" target="gOxFweUKBGqqjZpO7kUV-41">
          <mxGeometry relative="1" as="geometry" />
        </mxCell>
        <mxCell id="gOxFweUKBGqqjZpO7kUV-111" value="1.3" style="edgeLabel;html=1;align=center;verticalAlign=middle;resizable=0;points=[];" vertex="1" connectable="0" parent="gOxFweUKBGqqjZpO7kUV-82">
          <mxGeometry x="0.0345" relative="1" as="geometry">
            <mxPoint as="offset" />
          </mxGeometry>
        </mxCell>
        <mxCell id="gOxFweUKBGqqjZpO7kUV-44" value="配置RPA流程" style="whiteSpace=wrap;html=1;" vertex="1" parent="1">
          <mxGeometry x="180" y="1240" width="120" height="60" as="geometry" />
        </mxCell>
        <mxCell id="gOxFweUKBGqqjZpO7kUV-54" value="" style="edgeStyle=orthogonalEdgeStyle;rounded=0;orthogonalLoop=1;jettySize=auto;html=1;" edge="1" parent="1" source="gOxFweUKBGqqjZpO7kUV-51" target="gOxFweUKBGqqjZpO7kUV-53">
          <mxGeometry relative="1" as="geometry" />
        </mxCell>
        <mxCell id="gOxFweUKBGqqjZpO7kUV-113" value="1.5" style="edgeLabel;html=1;align=center;verticalAlign=middle;resizable=0;points=[];" vertex="1" connectable="0" parent="gOxFweUKBGqqjZpO7kUV-54">
          <mxGeometry x="-0.083" relative="1" as="geometry">
            <mxPoint as="offset" />
          </mxGeometry>
        </mxCell>
        <mxCell id="gOxFweUKBGqqjZpO7kUV-51" value="调度巡检作业" style="whiteSpace=wrap;html=1;" vertex="1" parent="1">
          <mxGeometry x="367.5" y="1380" width="120" height="60" as="geometry" />
        </mxCell>
        <mxCell id="gOxFweUKBGqqjZpO7kUV-56" value="" style="edgeStyle=orthogonalEdgeStyle;rounded=0;orthogonalLoop=1;jettySize=auto;html=1;" edge="1" parent="1" source="gOxFweUKBGqqjZpO7kUV-53" target="gOxFweUKBGqqjZpO7kUV-55">
          <mxGeometry relative="1" as="geometry" />
        </mxCell>
        <mxCell id="gOxFweUKBGqqjZpO7kUV-114" value="6" style="edgeLabel;html=1;align=center;verticalAlign=middle;resizable=0;points=[];" vertex="1" connectable="0" parent="gOxFweUKBGqqjZpO7kUV-56">
          <mxGeometry x="-0.0897" y="-1" relative="1" as="geometry">
            <mxPoint as="offset" />
          </mxGeometry>
        </mxCell>
        <mxCell id="gOxFweUKBGqqjZpO7kUV-119" value="1.6" style="edgeLabel;html=1;align=center;verticalAlign=middle;resizable=0;points=[];" vertex="1" connectable="0" parent="gOxFweUKBGqqjZpO7kUV-56">
          <mxGeometry x="-0.0911" y="-1" relative="1" as="geometry">
            <mxPoint as="offset" />
          </mxGeometry>
        </mxCell>
        <mxCell id="gOxFweUKBGqqjZpO7kUV-53" value="下发作业" style="whiteSpace=wrap;html=1;" vertex="1" parent="1">
          <mxGeometry x="180" y="1380" width="120" height="60" as="geometry" />
        </mxCell>
        <mxCell id="gOxFweUKBGqqjZpO7kUV-58" value="" style="edgeStyle=orthogonalEdgeStyle;rounded=0;orthogonalLoop=1;jettySize=auto;html=1;" edge="1" parent="1" source="gOxFweUKBGqqjZpO7kUV-55" target="gOxFweUKBGqqjZpO7kUV-57">
          <mxGeometry relative="1" as="geometry" />
        </mxCell>
        <mxCell id="gOxFweUKBGqqjZpO7kUV-115" value="1.7" style="edgeLabel;html=1;align=center;verticalAlign=middle;resizable=0;points=[];" vertex="1" connectable="0" parent="gOxFweUKBGqqjZpO7kUV-58">
          <mxGeometry x="-0.054" relative="1" as="geometry">
            <mxPoint as="offset" />
          </mxGeometry>
        </mxCell>
        <mxCell id="gOxFweUKBGqqjZpO7kUV-55" value="执行器执行作业" style="whiteSpace=wrap;html=1;" vertex="1" parent="1">
          <mxGeometry x="10" y="1380" width="120" height="60" as="geometry" />
        </mxCell>
        <mxCell id="gOxFweUKBGqqjZpO7kUV-83" style="edgeStyle=orthogonalEdgeStyle;rounded=0;orthogonalLoop=1;jettySize=auto;html=1;exitX=1;exitY=0.5;exitDx=0;exitDy=0;" edge="1" parent="1" source="gOxFweUKBGqqjZpO7kUV-57">
          <mxGeometry relative="1" as="geometry">
            <mxPoint x="400" y="1440" as="targetPoint" />
          </mxGeometry>
        </mxCell>
        <mxCell id="gOxFweUKBGqqjZpO7kUV-116" value="1.8" style="edgeLabel;html=1;align=center;verticalAlign=middle;resizable=0;points=[];" vertex="1" connectable="0" parent="gOxFweUKBGqqjZpO7kUV-83">
          <mxGeometry x="-0.1334" y="-1" relative="1" as="geometry">
            <mxPoint as="offset" />
          </mxGeometry>
        </mxCell>
        <mxCell id="gOxFweUKBGqqjZpO7kUV-57" value="回传作业记录" style="whiteSpace=wrap;html=1;" vertex="1" parent="1">
          <mxGeometry x="10" y="1500" width="120" height="60" as="geometry" />
        </mxCell>
        <mxCell id="gOxFweUKBGqqjZpO7kUV-90" style="edgeStyle=orthogonalEdgeStyle;rounded=0;orthogonalLoop=1;jettySize=auto;html=1;exitX=0.25;exitY=1;exitDx=0;exitDy=0;entryX=0.5;entryY=0;entryDx=0;entryDy=0;" edge="1" parent="1" source="gOxFweUKBGqqjZpO7kUV-64" target="gOxFweUKBGqqjZpO7kUV-67">
          <mxGeometry relative="1" as="geometry" />
        </mxCell>
        <mxCell id="gOxFweUKBGqqjZpO7kUV-125" value="2.1" style="edgeLabel;html=1;align=center;verticalAlign=middle;resizable=0;points=[];" vertex="1" connectable="0" parent="gOxFweUKBGqqjZpO7kUV-90">
          <mxGeometry x="-0.2277" y="-1" relative="1" as="geometry">
            <mxPoint as="offset" />
          </mxGeometry>
        </mxCell>
        <mxCell id="gOxFweUKBGqqjZpO7kUV-64" value="巡检作业记录库" style="shape=internalStorage;whiteSpace=wrap;html=1;dx=15;dy=15;rounded=1;arcSize=8;strokeWidth=2;" vertex="1" parent="1">
          <mxGeometry x="430" y="1492.5" width="95" height="75" as="geometry" />
        </mxCell>
        <mxCell id="gOxFweUKBGqqjZpO7kUV-67" value="建立和优化预测模型" style="whiteSpace=wrap;html=1;" vertex="1" parent="1">
          <mxGeometry x="250" y="1610" width="120" height="60" as="geometry" />
        </mxCell>
        <mxCell id="gOxFweUKBGqqjZpO7kUV-94" style="edgeStyle=orthogonalEdgeStyle;rounded=0;orthogonalLoop=1;jettySize=auto;html=1;exitX=0;exitY=0.5;exitDx=0;exitDy=0;exitPerimeter=0;entryX=1;entryY=0.5;entryDx=0;entryDy=0;" edge="1" parent="1" source="gOxFweUKBGqqjZpO7kUV-73" target="gOxFweUKBGqqjZpO7kUV-77">
          <mxGeometry relative="1" as="geometry" />
        </mxCell>
        <mxCell id="gOxFweUKBGqqjZpO7kUV-122" value="1.11.1" style="edgeLabel;html=1;align=center;verticalAlign=middle;resizable=0;points=[];" vertex="1" connectable="0" parent="gOxFweUKBGqqjZpO7kUV-94">
          <mxGeometry x="-0.2193" y="-1" relative="1" as="geometry">
            <mxPoint as="offset" />
          </mxGeometry>
        </mxCell>
        <mxCell id="gOxFweUKBGqqjZpO7kUV-73" value="评估风险等级" style="strokeWidth=2;html=1;shape=mxgraph.flowchart.decision;whiteSpace=wrap;" vertex="1" parent="1">
          <mxGeometry x="427.5" y="1710" width="100" height="100" as="geometry" />
        </mxCell>
        <mxCell id="gOxFweUKBGqqjZpO7kUV-76" value="结束" style="strokeWidth=2;html=1;shape=mxgraph.flowchart.terminator;whiteSpace=wrap;" vertex="1" parent="1">
          <mxGeometry x="427.5" y="1890" width="100" height="60" as="geometry" />
        </mxCell>
        <mxCell id="gOxFweUKBGqqjZpO7kUV-97" style="edgeStyle=orthogonalEdgeStyle;rounded=0;orthogonalLoop=1;jettySize=auto;html=1;exitX=0.5;exitY=1;exitDx=0;exitDy=0;" edge="1" parent="1" source="gOxFweUKBGqqjZpO7kUV-77" target="gOxFweUKBGqqjZpO7kUV-76">
          <mxGeometry relative="1" as="geometry" />
        </mxCell>
        <mxCell id="gOxFweUKBGqqjZpO7kUV-124" value="1.12" style="edgeLabel;html=1;align=center;verticalAlign=middle;resizable=0;points=[];" vertex="1" connectable="0" parent="gOxFweUKBGqqjZpO7kUV-97">
          <mxGeometry x="-0.2104" y="1" relative="1" as="geometry">
            <mxPoint as="offset" />
          </mxGeometry>
        </mxCell>
        <mxCell id="gOxFweUKBGqqjZpO7kUV-77" value="生成预警" style="whiteSpace=wrap;html=1;" vertex="1" parent="1">
          <mxGeometry x="250" y="1730" width="120" height="60" as="geometry" />
        </mxCell>
        <mxCell id="gOxFweUKBGqqjZpO7kUV-86" style="edgeStyle=orthogonalEdgeStyle;rounded=0;orthogonalLoop=1;jettySize=auto;html=1;exitX=0.75;exitY=1;exitDx=0;exitDy=0;entryX=0.295;entryY=0.01;entryDx=0;entryDy=0;entryPerimeter=0;" edge="1" parent="1" source="gOxFweUKBGqqjZpO7kUV-51" target="gOxFweUKBGqqjZpO7kUV-64">
          <mxGeometry relative="1" as="geometry">
            <Array as="points">
              <mxPoint x="458" y="1460" />
              <mxPoint x="458" y="1460" />
            </Array>
          </mxGeometry>
        </mxCell>
        <mxCell id="gOxFweUKBGqqjZpO7kUV-117" value="1.9" style="edgeLabel;html=1;align=center;verticalAlign=middle;resizable=0;points=[];" vertex="1" connectable="0" parent="gOxFweUKBGqqjZpO7kUV-86">
          <mxGeometry x="-0.1949" y="-3" relative="1" as="geometry">
            <mxPoint as="offset" />
          </mxGeometry>
        </mxCell>
        <mxCell id="gOxFweUKBGqqjZpO7kUV-89" style="edgeStyle=orthogonalEdgeStyle;rounded=0;orthogonalLoop=1;jettySize=auto;html=1;exitX=0.5;exitY=1;exitDx=0;exitDy=0;entryX=0.5;entryY=0;entryDx=0;entryDy=0;entryPerimeter=0;" edge="1" parent="1" source="gOxFweUKBGqqjZpO7kUV-64" target="gOxFweUKBGqqjZpO7kUV-73">
          <mxGeometry relative="1" as="geometry" />
        </mxCell>
        <mxCell id="gOxFweUKBGqqjZpO7kUV-120" value="1.10.1" style="edgeLabel;html=1;align=center;verticalAlign=middle;resizable=0;points=[];" vertex="1" connectable="0" parent="gOxFweUKBGqqjZpO7kUV-89">
          <mxGeometry x="-0.2062" y="-2" relative="1" as="geometry">
            <mxPoint as="offset" />
          </mxGeometry>
        </mxCell>
        <mxCell id="gOxFweUKBGqqjZpO7kUV-92" style="edgeStyle=orthogonalEdgeStyle;rounded=0;orthogonalLoop=1;jettySize=auto;html=1;exitX=1;exitY=0.5;exitDx=0;exitDy=0;entryX=0.5;entryY=0;entryDx=0;entryDy=0;entryPerimeter=0;" edge="1" parent="1" source="gOxFweUKBGqqjZpO7kUV-67" target="gOxFweUKBGqqjZpO7kUV-73">
          <mxGeometry relative="1" as="geometry" />
        </mxCell>
        <mxCell id="gOxFweUKBGqqjZpO7kUV-121" value="1.10.2" style="edgeLabel;html=1;align=center;verticalAlign=middle;resizable=0;points=[];" vertex="1" connectable="0" parent="gOxFweUKBGqqjZpO7kUV-92">
          <mxGeometry x="-0.364" y="1" relative="1" as="geometry">
            <mxPoint as="offset" />
          </mxGeometry>
        </mxCell>
        <mxCell id="gOxFweUKBGqqjZpO7kUV-95" style="edgeStyle=orthogonalEdgeStyle;rounded=0;orthogonalLoop=1;jettySize=auto;html=1;exitX=0.5;exitY=1;exitDx=0;exitDy=0;exitPerimeter=0;entryX=0.5;entryY=0;entryDx=0;entryDy=0;entryPerimeter=0;" edge="1" parent="1" source="gOxFweUKBGqqjZpO7kUV-73" target="gOxFweUKBGqqjZpO7kUV-76">
          <mxGeometry relative="1" as="geometry" />
        </mxCell>
        <mxCell id="gOxFweUKBGqqjZpO7kUV-123" value="1.11.2" style="edgeLabel;html=1;align=center;verticalAlign=middle;resizable=0;points=[];" vertex="1" connectable="0" parent="gOxFweUKBGqqjZpO7kUV-95">
          <mxGeometry x="-0.5375" y="1" relative="1" as="geometry">
            <mxPoint as="offset" />
          </mxGeometry>
        </mxCell>
        <mxCell id="gOxFweUKBGqqjZpO7kUV-100" value="" style="edgeStyle=orthogonalEdgeStyle;rounded=0;orthogonalLoop=1;jettySize=auto;html=1;" edge="1" parent="1" source="gOxFweUKBGqqjZpO7kUV-98" target="gOxFweUKBGqqjZpO7kUV-99">
          <mxGeometry relative="1" as="geometry" />
        </mxCell>
        <mxCell id="gOxFweUKBGqqjZpO7kUV-98" value="开始" style="strokeWidth=2;html=1;shape=mxgraph.flowchart.start_2;whiteSpace=wrap;" vertex="1" parent="1">
          <mxGeometry x="10" y="2040" width="100" height="100" as="geometry" />
        </mxCell>
        <mxCell id="gOxFweUKBGqqjZpO7kUV-102" value="" style="edgeStyle=orthogonalEdgeStyle;rounded=0;orthogonalLoop=1;jettySize=auto;html=1;" edge="1" parent="1" source="gOxFweUKBGqqjZpO7kUV-99" target="gOxFweUKBGqqjZpO7kUV-101">
          <mxGeometry relative="1" as="geometry" />
        </mxCell>
        <mxCell id="gOxFweUKBGqqjZpO7kUV-99" value="配置任务模板" style="whiteSpace=wrap;html=1;strokeWidth=2;" vertex="1" parent="1">
          <mxGeometry x="190" y="2060" width="120" height="60" as="geometry" />
        </mxCell>
        <mxCell id="gOxFweUKBGqqjZpO7kUV-104" value="" style="edgeStyle=orthogonalEdgeStyle;rounded=0;orthogonalLoop=1;jettySize=auto;html=1;" edge="1" parent="1" source="gOxFweUKBGqqjZpO7kUV-101" target="gOxFweUKBGqqjZpO7kUV-103">
          <mxGeometry relative="1" as="geometry" />
        </mxCell>
        <mxCell id="gOxFweUKBGqqjZpO7kUV-101" value="新增作业计划" style="whiteSpace=wrap;html=1;strokeWidth=2;" vertex="1" parent="1">
          <mxGeometry x="370" y="2060" width="120" height="60" as="geometry" />
        </mxCell>
        <mxCell id="gOxFweUKBGqqjZpO7kUV-106" value="" style="edgeStyle=orthogonalEdgeStyle;rounded=0;orthogonalLoop=1;jettySize=auto;html=1;" edge="1" parent="1" source="gOxFweUKBGqqjZpO7kUV-103" target="gOxFweUKBGqqjZpO7kUV-105">
          <mxGeometry relative="1" as="geometry" />
        </mxCell>
        <mxCell id="gOxFweUKBGqqjZpO7kUV-103" value="编辑脚本" style="whiteSpace=wrap;html=1;strokeWidth=2;" vertex="1" parent="1">
          <mxGeometry x="370" y="2200" width="120" height="60" as="geometry" />
        </mxCell>
        <mxCell id="gOxFweUKBGqqjZpO7kUV-108" style="edgeStyle=orthogonalEdgeStyle;rounded=0;orthogonalLoop=1;jettySize=auto;html=1;exitX=0.5;exitY=1;exitDx=0;exitDy=0;" edge="1" parent="1" source="gOxFweUKBGqqjZpO7kUV-105" target="gOxFweUKBGqqjZpO7kUV-107">
          <mxGeometry relative="1" as="geometry" />
        </mxCell>
        <mxCell id="gOxFweUKBGqqjZpO7kUV-105" value="按时执行作业计划" style="whiteSpace=wrap;html=1;strokeWidth=2;" vertex="1" parent="1">
          <mxGeometry x="190" y="2200" width="120" height="60" as="geometry" />
        </mxCell>
        <mxCell id="gOxFweUKBGqqjZpO7kUV-107" value="结束" style="strokeWidth=2;html=1;shape=mxgraph.flowchart.terminator;whiteSpace=wrap;" vertex="1" parent="1">
          <mxGeometry x="10" y="2200" width="100" height="60" as="geometry" />
        </mxCell>
        <mxCell id="gOxFweUKBGqqjZpO7kUV-144" value="生成告警" style="strokeWidth=2;html=1;shape=mxgraph.flowchart.decision;whiteSpace=wrap;" vertex="1" parent="1">
          <mxGeometry x="210" y="590" width="100" height="100" as="geometry" />
        </mxCell>
        <mxCell id="gOxFweUKBGqqjZpO7kUV-145" value="" style="edgeStyle=orthogonalEdgeStyle;rounded=0;orthogonalLoop=1;jettySize=auto;html=1;exitX=0.5;exitY=1;exitDx=0;exitDy=0;exitPerimeter=0;" edge="1" parent="1" source="gOxFweUKBGqqjZpO7kUV-144" target="gOxFweUKBGqqjZpO7kUV-32">
          <mxGeometry relative="1" as="geometry">
            <mxPoint x="260" y="690" as="sourcePoint" />
            <mxPoint x="260" y="804" as="targetPoint" />
          </mxGeometry>
        </mxCell>
        <mxCell id="gOxFweUKBGqqjZpO7kUV-146" value="1.1.6" style="edgeLabel;html=1;align=center;verticalAlign=middle;resizable=0;points=[];" vertex="1" connectable="0" parent="gOxFweUKBGqqjZpO7kUV-145">
          <mxGeometry x="-0.3007" y="-1" relative="1" as="geometry">
            <mxPoint x="1" y="-7" as="offset" />
          </mxGeometry>
        </mxCell>
        <mxCell id="gOxFweUKBGqqjZpO7kUV-32" value="告警库" style="shape=internalStorage;whiteSpace=wrap;html=1;dx=15;dy=15;rounded=1;arcSize=8;strokeWidth=2;" vertex="1" parent="1">
          <mxGeometry x="225" y="720" width="70" height="70" as="geometry" />
        </mxCell>
        <mxCell id="gOxFweUKBGqqjZpO7kUV-147" style="edgeStyle=orthogonalEdgeStyle;rounded=0;orthogonalLoop=1;jettySize=auto;html=1;exitX=0;exitY=0.5;exitDx=0;exitDy=0;exitPerimeter=0;entryX=0.008;entryY=0.594;entryDx=0;entryDy=0;entryPerimeter=0;" edge="1" parent="1" source="gOxFweUKBGqqjZpO7kUV-144" target="gOxFweUKBGqqjZpO7kUV-29">
          <mxGeometry relative="1" as="geometry">
            <Array as="points">
              <mxPoint x="70" y="640" />
              <mxPoint x="70" y="1145" />
            </Array>
          </mxGeometry>
        </mxCell>
        <mxCell id="gOxFweUKBGqqjZpO7kUV-148" value="1.1.5" style="edgeLabel;html=1;align=center;verticalAlign=middle;resizable=0;points=[];" vertex="1" connectable="0" parent="gOxFweUKBGqqjZpO7kUV-147">
          <mxGeometry x="-0.8865" y="1" relative="1" as="geometry">
            <mxPoint as="offset" />
          </mxGeometry>
        </mxCell>
      </root>
    </mxGraphModel>
  </diagram>
</mxfile>
